<svg class="rich-terminal" viewBox="0 0 1629 977.1999999999999" xmlns="http://www.w3.org/2000/svg">
    <!-- Generated with Rich https://www.textualize.io -->
    <style>

    @font-face {
        font-family: "Fira Code";
        src: local("FiraCode-Regular"),
                url("https://cdnjs.cloudflare.com/ajax/libs/firacode/6.2.0/woff2/FiraCode-Regular.woff2") format("woff2"),
                url("https://cdnjs.cloudflare.com/ajax/libs/firacode/6.2.0/woff/FiraCode-Regular.woff") format("woff");
        font-style: normal;
        font-weight: 400;
    }
    @font-face {
        font-family: "Fira Code";
        src: local("FiraCode-Bold"),
                url("https://cdnjs.cloudflare.com/ajax/libs/firacode/6.2.0/woff2/FiraCode-Bold.woff2") format("woff2"),
                url("https://cdnjs.cloudflare.com/ajax/libs/firacode/6.2.0/woff/FiraCode-Bold.woff") format("woff");
        font-style: bold;
        font-weight: 700;
    }

    .terminal-1351526283-matrix {
        font-family: Fira Code, monospace;
        font-size: 20px;
        line-height: 24.4px;
        font-variant-east-asian: full-width;
    }

    .terminal-1351526283-title {
        font-size: 18px;
        font-weight: bold;
        font-family: arial;
    }

    .terminal-1351526283-r1 { fill: #c5c8c6 }
.terminal-1351526283-r2 { fill: #fea62b }
.terminal-1351526283-r3 { fill: #e0e0e0;font-weight: bold }
.terminal-1351526283-r4 { fill: #9e9e9e }
.terminal-1351526283-r5 { fill: #e0e0e0 }
.terminal-1351526283-r6 { fill: #fea62b;font-weight: bold }
.terminal-1351526283-r7 { fill: #b17726 }
    </style>

    <defs>
    <clipPath id="terminal-1351526283-clip-terminal">
      <rect x="0" y="0" width="1609.3999999999999" height="926.1999999999999" />
    </clipPath>
    <clipPath id="terminal-1351526283-line-0">
    <rect x="0" y="1.5" width="1610.4" height="24.65"/>
            </clipPath>
<clipPath id="terminal-1351526283-line-1">
    <rect x="0" y="25.9" width="1610.4" height="24.65"/>
            </clipPath>
<clipPath id="terminal-1351526283-line-2">
    <rect x="0" y="50.3" width="1610.4" height="24.65"/>
            </clipPath>
<clipPath id="terminal-1351526283-line-3">
    <rect x="0" y="74.7" width="1610.4" height="24.65"/>
            </clipPath>
<clipPath id="terminal-1351526283-line-4">
    <rect x="0" y="99.1" width="1610.4" height="24.65"/>
            </clipPath>
<clipPath id="terminal-1351526283-line-5">
    <rect x="0" y="123.5" width="1610.4" height="24.65"/>
            </clipPath>
<clipPath id="terminal-1351526283-line-6">
    <rect x="0" y="147.9" width="1610.4" height="24.65"/>
            </clipPath>
<clipPath id="terminal-1351526283-line-7">
    <rect x="0" y="172.3" width="1610.4" height="24.65"/>
            </clipPath>
<clipPath id="terminal-1351526283-line-8">
    <rect x="0" y="196.7" width="1610.4" height="24.65"/>
            </clipPath>
<clipPath id="terminal-1351526283-line-9">
    <rect x="0" y="221.1" width="1610.4" height="24.65"/>
            </clipPath>
<clipPath id="terminal-1351526283-line-10">
    <rect x="0" y="245.5" width="1610.4" height="24.65"/>
            </clipPath>
<clipPath id="terminal-1351526283-line-11">
    <rect x="0" y="269.9" width="1610.4" height="24.65"/>
            </clipPath>
<clipPath id="terminal-1351526283-line-12">
    <rect x="0" y="294.3" width="1610.4" height="24.65"/>
            </clipPath>
<clipPath id="terminal-1351526283-line-13">
    <rect x="0" y="318.7" width="1610.4" height="24.65"/>
            </clipPath>
<clipPath id="terminal-1351526283-line-14">
    <rect x="0" y="343.1" width="1610.4" height="24.65"/>
            </clipPath>
<clipPath id="terminal-1351526283-line-15">
    <rect x="0" y="367.5" width="1610.4" height="24.65"/>
            </clipPath>
<clipPath id="terminal-1351526283-line-16">
    <rect x="0" y="391.9" width="1610.4" height="24.65"/>
            </clipPath>
<clipPath id="terminal-1351526283-line-17">
    <rect x="0" y="416.3" width="1610.4" height="24.65"/>
            </clipPath>
<clipPath id="terminal-1351526283-line-18">
    <rect x="0" y="440.7" width="1610.4" height="24.65"/>
            </clipPath>
<clipPath id="terminal-1351526283-line-19">
    <rect x="0" y="465.1" width="1610.4" height="24.65"/>
            </clipPath>
<clipPath id="terminal-1351526283-line-20">
    <rect x="0" y="489.5" width="1610.4" height="24.65"/>
            </clipPath>
<clipPath id="terminal-1351526283-line-21">
    <rect x="0" y="513.9" width="1610.4" height="24.65"/>
            </clipPath>
<clipPath id="terminal-1351526283-line-22">
    <rect x="0" y="538.3" width="1610.4" height="24.65"/>
            </clipPath>
<clipPath id="terminal-1351526283-line-23">
    <rect x="0" y="562.7" width="1610.4" height="24.65"/>
            </clipPath>
<clipPath id="terminal-1351526283-line-24">
    <rect x="0" y="587.1" width="1610.4" height="24.65"/>
            </clipPath>
<clipPath id="terminal-1351526283-line-25">
    <rect x="0" y="611.5" width="1610.4" height="24.65"/>
            </clipPath>
<clipPath id="terminal-1351526283-line-26">
    <rect x="0" y="635.9" width="1610.4" height="24.65"/>
            </clipPath>
<clipPath id="terminal-1351526283-line-27">
    <rect x="0" y="660.3" width="1610.4" height="24.65"/>
            </clipPath>
<clipPath id="terminal-1351526283-line-28">
    <rect x="0" y="684.7" width="1610.4" height="24.65"/>
            </clipPath>
<clipPath id="terminal-1351526283-line-29">
    <rect x="0" y="709.1" width="1610.4" height="24.65"/>
            </clipPath>
<clipPath id="terminal-1351526283-line-30">
    <rect x="0" y="733.5" width="1610.4" height="24.65"/>
            </clipPath>
<clipPath id="terminal-1351526283-line-31">
    <rect x="0" y="757.9" width="1610.4" height="24.65"/>
            </clipPath>
<clipPath id="terminal-1351526283-line-32">
    <rect x="0" y="782.3" width="1610.4" height="24.65"/>
            </clipPath>
<clipPath id="terminal-1351526283-line-33">
    <rect x="0" y="806.7" width="1610.4" height="24.65"/>
            </clipPath>
<clipPath id="terminal-1351526283-line-34">
    <rect x="0" y="831.1" width="1610.4" height="24.65"/>
            </clipPath>
<clipPath id="terminal-1351526283-line-35">
    <rect x="0" y="855.5" width="1610.4" height="24.65"/>
            </clipPath>
<clipPath id="terminal-1351526283-line-36">
    <rect x="0" y="879.9" width="1610.4" height="24.65"/>
            </clipPath>
    </defs>

    <rect fill="#292929" stroke="rgba(255,255,255,0.35)" stroke-width="1" x="1" y="1" width="1627" height="975.2" rx="8"/><text class="terminal-1351526283-title" fill="#c5c8c6" text-anchor="middle" x="813" y="27">SuperRobot</text>
            <g transform="translate(26,22)">
            <circle cx="0" cy="0" r="7" fill="#ff5f57"/>
            <circle cx="22" cy="0" r="7" fill="#febc2e"/>
            <circle cx="44" cy="0" r="7" fill="#28c840"/>
            </g>
        
    <g transform="translate(9, 41)" clip-path="url(#terminal-1351526283-clip-terminal)">
    <rect fill="#1e1e1e" x="0" y="1.5" width="1610.4" height="24.65" shape-rendering="crispEdges"/><rect fill="#1e1e1e" x="0" y="25.9" width="1610.4" height="24.65" shape-rendering="crispEdges"/><rect fill="#1e1e1e" x="0" y="50.3" width="1610.4" height="24.65" shape-rendering="crispEdges"/><rect fill="#1e1e1e" x="0" y="74.7" width="1610.4" height="24.65" shape-rendering="crispEdges"/><rect fill="#1e1e1e" x="0" y="99.1" width="1610.4" height="24.65" shape-rendering="crispEdges"/><rect fill="#1e1e1e" x="0" y="123.5" width="1610.4" height="24.65" shape-rendering="crispEdges"/><rect fill="#1e1e1e" x="0" y="147.9" width="1610.4" height="24.65" shape-rendering="crispEdges"/><rect fill="#1e1e1e" x="0" y="172.3" width="1610.4" height="24.65" shape-rendering="crispEdges"/><rect fill="#1e1e1e" x="0" y="196.7" width="1610.4" height="24.65" shape-rendering="crispEdges"/><rect fill="#1e1e1e" x="0" y="221.1" width="622.2" height="24.65" shape-rendering="crispEdges"/><rect fill="#1e1e1e" x="622.2" y="221.1" width="170.8" height="24.65" shape-rendering="crispEdges"/><rect fill="#1e1e1e" x="793" y="221.1" width="0" height="24.65" shape-rendering="crispEdges"/><rect fill="#1e1e1e" x="793" y="221.1" width="183" height="24.65" shape-rendering="crispEdges"/><rect fill="#1e1e1e" x="976" y="221.1" width="634.4" height="24.65" shape-rendering="crispEdges"/><rect fill="#1e1e1e" x="0" y="245.5" width="622.2" height="24.65" shape-rendering="crispEdges"/><rect fill="#1e1e1e" x="622.2" y="245.5" width="73.2" height="24.65" shape-rendering="crispEdges"/><rect fill="#1e1e1e" x="695.4" y="245.5" width="195.2" height="24.65" shape-rendering="crispEdges"/><rect fill="#1e1e1e" x="890.6" y="245.5" width="85.4" height="24.65" shape-rendering="crispEdges"/><rect fill="#1e1e1e" x="976" y="245.5" width="634.4" height="24.65" shape-rendering="crispEdges"/><rect fill="#1e1e1e" x="0" y="269.9" width="622.2" height="24.65" shape-rendering="crispEdges"/><rect fill="#1e1e1e" x="622.2" y="269.9" width="73.2" height="24.65" shape-rendering="crispEdges"/><rect fill="#1e1e1e" x="695.4" y="269.9" width="195.2" height="24.65" shape-rendering="crispEdges"/><rect fill="#1e1e1e" x="890.6" y="269.9" width="85.4" height="24.65" shape-rendering="crispEdges"/><rect fill="#1e1e1e" x="976" y="269.9" width="634.4" height="24.65" shape-rendering="crispEdges"/><rect fill="#1e1e1e" x="0" y="294.3" width="622.2" height="24.65" shape-rendering="crispEdges"/><rect fill="#1e1e1e" x="622.2" y="294.3" width="24.4" height="24.65" shape-rendering="crispEdges"/><rect fill="#1e1e1e" x="646.6" y="294.3" width="305" height="24.65" shape-rendering="crispEdges"/><rect fill="#1e1e1e" x="951.6" y="294.3" width="24.4" height="24.65" shape-rendering="crispEdges"/><rect fill="#1e1e1e" x="976" y="294.3" width="634.4" height="24.65" shape-rendering="crispEdges"/><rect fill="#1e1e1e" x="0" y="318.7" width="622.2" height="24.65" shape-rendering="crispEdges"/><rect fill="#1e1e1e" x="622.2" y="318.7" width="12.2" height="24.65" shape-rendering="crispEdges"/><rect fill="#1e1e1e" x="634.4" y="318.7" width="317.2" height="24.65" shape-rendering="crispEdges"/><rect fill="#1e1e1e" x="951.6" y="318.7" width="24.4" height="24.65" shape-rendering="crispEdges"/><rect fill="#1e1e1e" x="976" y="318.7" width="634.4" height="24.65" shape-rendering="crispEdges"/><rect fill="#1e1e1e" x="0" y="343.1" width="622.2" height="24.65" shape-rendering="crispEdges"/><rect fill="#1e1e1e" x="622.2" y="343.1" width="12.2" height="24.65" shape-rendering="crispEdges"/><rect fill="#1e1e1e" x="634.4" y="343.1" width="317.2" height="24.65" shape-rendering="crispEdges"/><rect fill="#1e1e1e" x="951.6" y="343.1" width="24.4" height="24.65" shape-rendering="crispEdges"/><rect fill="#1e1e1e" x="976" y="343.1" width="634.4" height="24.65" shape-rendering="crispEdges"/><rect fill="#1e1e1e" x="0" y="367.5" width="622.2" height="24.65" shape-rendering="crispEdges"/><rect fill="#1e1e1e" x="622.2" y="367.5" width="353.8" height="24.65" shape-rendering="crispEdges"/><rect fill="#1e1e1e" x="976" y="367.5" width="634.4" height="24.65" shape-rendering="crispEdges"/><rect fill="#1e1e1e" x="0" y="391.9" width="622.2" height="24.65" shape-rendering="crispEdges"/><rect fill="#1e1e1e" x="622.2" y="391.9" width="353.8" height="24.65" shape-rendering="crispEdges"/><rect fill="#1e1e1e" x="976" y="391.9" width="634.4" height="24.65" shape-rendering="crispEdges"/><rect fill="#1e1e1e" x="0" y="416.3" width="622.2" height="24.65" shape-rendering="crispEdges"/><rect fill="#1e1e1e" x="622.2" y="416.3" width="12.2" height="24.65" shape-rendering="crispEdges"/><rect fill="#1e1e1e" x="634.4" y="416.3" width="317.2" height="24.65" shape-rendering="crispEdges"/><rect fill="#1e1e1e" x="951.6" y="416.3" width="24.4" height="24.65" shape-rendering="crispEdges"/><rect fill="#1e1e1e" x="976" y="416.3" width="634.4" height="24.65" shape-rendering="crispEdges"/><rect fill="#1e1e1e" x="0" y="440.7" width="622.2" height="24.65" shape-rendering="crispEdges"/><rect fill="#1e1e1e" x="622.2" y="440.7" width="12.2" height="24.65" shape-rendering="crispEdges"/><rect fill="#1e1e1e" x="634.4" y="440.7" width="317.2" height="24.65" shape-rendering="crispEdges"/><rect fill="#1e1e1e" x="951.6" y="440.7" width="24.4" height="24.65" shape-rendering="crispEdges"/><rect fill="#1e1e1e" x="976" y="440.7" width="634.4" height="24.65" shape-rendering="crispEdges"/><rect fill="#1e1e1e" x="0" y="465.1" width="622.2" height="24.65" shape-rendering="crispEdges"/><rect fill="#1e1e1e" x="622.2" y="465.1" width="24.4" height="24.65" shape-rendering="crispEdges"/><rect fill="#1e1e1e" x="646.6" y="465.1" width="305" height="24.65" shape-rendering="crispEdges"/><rect fill="#1e1e1e" x="951.6" y="465.1" width="24.4" height="24.65" shape-rendering="crispEdges"/><rect fill="#1e1e1e" x="976" y="465.1" width="634.4" height="24.65" shape-rendering="crispEdges"/><rect fill="#1e1e1e" x="0" y="489.5" width="622.2" height="24.65" shape-rendering="crispEdges"/><rect fill="#1e1e1e" x="622.2" y="489.5" width="170.8" height="24.65" shape-rendering="crispEdges"/><rect fill="#1e1e1e" x="793" y="489.5" width="0" height="24.65" shape-rendering="crispEdges"/><rect fill="#1e1e1e" x="793" y="489.5" width="183" height="24.65" shape-rendering="crispEdges"/><rect fill="#1e1e1e" x="976" y="489.5" width="634.4" height="24.65" shape-rendering="crispEdges"/><rect fill="#1e1e1e" x="0" y="513.9" width="1610.4" height="24.65" shape-rendering="crispEdges"/><rect fill="#1e1e1e" x="0" y="538.3" width="634.4" height="24.65" shape-rendering="crispEdges"/><rect fill="#1e1e1e" x="634.4" y="538.3" width="48.8" height="24.65" shape-rendering="crispEdges"/><rect fill="#1e1e1e" x="683.2" y="538.3" width="231.8" height="24.65" shape-rendering="crispEdges"/><rect fill="#1e1e1e" x="915" y="538.3" width="61" height="24.65" shape-rendering="crispEdges"/><rect fill="#1e1e1e" x="976" y="538.3" width="634.4" height="24.65" shape-rendering="crispEdges"/><rect fill="#1e1e1e" x="0" y="562.7" width="634.4" height="24.65" shape-rendering="crispEdges"/><rect fill="#1e1e1e" x="634.4" y="562.7" width="219.6" height="24.65" shape-rendering="crispEdges"/><rect fill="#1e1e1e" x="854" y="562.7" width="12.2" height="24.65" shape-rendering="crispEdges"/><rect fill="#1e1e1e" x="866.2" y="562.7" width="109.8" height="24.65" shape-rendering="crispEdges"/><rect fill="#1e1e1e" x="976" y="562.7" width="634.4" height="24.65" shape-rendering="crispEdges"/><rect fill="#1e1e1e" x="0" y="587.1" width="1610.4" height="24.65" shape-rendering="crispEdges"/><rect fill="#1e1e1e" x="0" y="611.5" width="634.4" height="24.65" shape-rendering="crispEdges"/><rect fill="#1e1e1e" x="634.4" y="611.5" width="61" height="24.65" shape-rendering="crispEdges"/><rect fill="#1e1e1e" x="695.4" y="611.5" width="280.6" height="24.65" shape-rendering="crispEdges"/><rect fill="#1e1e1e" x="976" y="611.5" width="634.4" height="24.65" shape-rendering="crispEdges"/><rect fill="#1e1e1e" x="0" y="635.9" width="1610.4" height="24.65" shape-rendering="crispEdges"/><rect fill="#1e1e1e" x="0" y="660.3" width="1610.4" height="24.65" shape-rendering="crispEdges"/><rect fill="#1e1e1e" x="0" y="684.7" width="597.8" height="24.65" shape-rendering="crispEdges"/><rect fill="#1e1e1e" x="597.8" y="684.7" width="414.8" height="24.65" shape-rendering="crispEdges"/><rect fill="#1e1e1e" x="1012.6" y="684.7" width="597.8" height="24.65" shape-rendering="crispEdges"/><rect fill="#1e1e1e" x="0" y="709.1" width="1610.4" height="24.65" shape-rendering="crispEdges"/><rect fill="#1e1e1e" x="0" y="733.5" width="1610.4" height="24.65" shape-rendering="crispEdges"/><rect fill="#1e1e1e" x="0" y="757.9" width="1610.4" height="24.65" shape-rendering="crispEdges"/><rect fill="#1e1e1e" x="0" y="782.3" width="1610.4" height="24.65" shape-rendering="crispEdges"/><rect fill="#1e1e1e" x="0" y="806.7" width="1610.4" height="24.65" shape-rendering="crispEdges"/><rect fill="#1e1e1e" x="0" y="831.1" width="1610.4" height="24.65" shape-rendering="crispEdges"/><rect fill="#1e1e1e" x="0" y="855.5" width="1610.4" height="24.65" shape-rendering="crispEdges"/><rect fill="#1e1e1e" x="0" y="879.9" width="1610.4" height="24.65" shape-rendering="crispEdges"/><rect fill="#1e1e1e" x="0" y="904.3" width="1610.4" height="24.65" shape-rendering="crispEdges"/>
    <g class="terminal-1351526283-matrix">
    <text class="terminal-1351526283-r1" x="1610.4" y="20" textLength="12.2" clip-path="url(#terminal-1351526283-line-0)">
</text><text class="terminal-1351526283-r1" x="1610.4" y="44.4" textLength="12.2" clip-path="url(#terminal-1351526283-line-1)">
</text><text class="terminal-1351526283-r1" x="1610.4" y="68.8" textLength="12.2" clip-path="url(#terminal-1351526283-line-2)">
</text><text class="terminal-1351526283-r1" x="1610.4" y="93.2" textLength="12.2" clip-path="url(#terminal-1351526283-line-3)">
</text><text class="terminal-1351526283-r1" x="1610.4" y="117.6" textLength="12.2" clip-path="url(#terminal-1351526283-line-4)">
</text><text class="terminal-1351526283-r1" x="1610.4" y="142" textLength="12.2" clip-path="url(#terminal-1351526283-line-5)">
</text><text class="terminal-1351526283-r1" x="1610.4" y="166.4" textLength="12.2" clip-path="url(#terminal-1351526283-line-6)">
</text><text class="terminal-1351526283-r1" x="1610.4" y="190.8" textLength="12.2" clip-path="url(#terminal-1351526283-line-7)">
</text><text class="terminal-1351526283-r1" x="1610.4" y="215.2" textLength="12.2" clip-path="url(#terminal-1351526283-line-8)">
</text><text class="terminal-1351526283-r1" x="1610.4" y="239.6" textLength="12.2" clip-path="url(#terminal-1351526283-line-9)">
</text><text class="terminal-1351526283-r2" x="695.4" y="264" textLength="195.2" clip-path="url(#terminal-1351526283-line-10)">&#160;&#160;&#160;&#160;&#160;&#160;&#160;&#160;&#160;&#160;&#160;&#160;&#160;▄█▄</text><text class="terminal-1351526283-r1" x="1610.4" y="264" textLength="12.2" clip-path="url(#terminal-1351526283-line-10)">
</text><text class="terminal-1351526283-r2" x="695.4" y="288.4" textLength="195.2" clip-path="url(#terminal-1351526283-line-11)">&#160;&#160;&#160;&#160;&#160;&#160;&#160;&#160;&#160;&#160;&#160;&#160;&#160;███</text><text class="terminal-1351526283-r1" x="1610.4" y="288.4" textLength="12.2" clip-path="url(#terminal-1351526283-line-11)">
</text><text class="terminal-1351526283-r2" x="646.6" y="312.8" textLength="305" clip-path="url(#terminal-1351526283-line-12)">&#160;&#160;&#160;&#160;▄▄▄▄▄▄▄▄▄███▄▄▄▄▄▄▄▄▄</text><text class="terminal-1351526283-r1" x="1610.4" y="312.8" textLength="12.2" clip-path="url(#terminal-1351526283-line-12)">
</text><text class="terminal-1351526283-r2" x="634.4" y="337.2" textLength="317.2" clip-path="url(#terminal-1351526283-line-13)">&#160;&#160;&#160;██&#160;&#160;&#160;&#160;&#160;&#160;&#160;&#160;&#160;&#160;&#160;&#160;&#160;&#160;&#160;&#160;&#160;&#160;&#160;██</text><text class="terminal-1351526283-r1" x="1610.4" y="337.2" textLength="12.2" clip-path="url(#terminal-1351526283-line-13)">
</text><text class="terminal-1351526283-r2" x="634.4" y="361.6" textLength="317.2" clip-path="url(#terminal-1351526283-line-14)">&#160;&#160;&#160;██&#160;&#160;&#160;&#160;███&#160;&#160;&#160;&#160;&#160;███&#160;&#160;&#160;&#160;██</text><text class="terminal-1351526283-r1" x="1610.4" y="361.6" textLength="12.2" clip-path="url(#terminal-1351526283-line-14)">
</text><text class="terminal-1351526283-r2" x="622.2" y="386" textLength="353.8" clip-path="url(#terminal-1351526283-line-15)">█████&#160;&#160;&#160;&#160;███&#160;&#160;&#160;&#160;&#160;███&#160;&#160;&#160;&#160;█████</text><text class="terminal-1351526283-r1" x="1610.4" y="386" textLength="12.2" clip-path="url(#terminal-1351526283-line-15)">
</text><text class="terminal-1351526283-r2" x="622.2" y="410.4" textLength="353.8" clip-path="url(#terminal-1351526283-line-16)">█████&#160;&#160;&#160;&#160;&#160;&#160;&#160;&#160;&#160;&#160;&#160;&#160;&#160;&#160;&#160;&#160;&#160;&#160;&#160;█████</text><text class="terminal-1351526283-r1" x="1610.4" y="410.4" textLength="12.2" clip-path="url(#terminal-1351526283-line-16)">
</text><text class="terminal-1351526283-r2" x="634.4" y="434.8" textLength="317.2" clip-path="url(#terminal-1351526283-line-17)">&#160;&#160;&#160;██&#160;&#160;&#160;▄▄▄▄▄▄▄▄▄▄▄▄▄&#160;&#160;&#160;██</text><text class="terminal-1351526283-r1" x="1610.4" y="434.8" textLength="12.2" clip-path="url(#terminal-1351526283-line-17)">
</text><text class="terminal-1351526283-r2" x="634.4" y="459.2" textLength="317.2" clip-path="url(#terminal-1351526283-line-18)">&#160;&#160;&#160;██&#160;&#160;&#160;▀▀▀▀▀▀▀▀▀▀▀▀▀&#160;&#160;&#160;██</text><text class="terminal-1351526283-r1" x="1610.4" y="459.2" textLength="12.2" clip-path="url(#terminal-1351526283-line-18)">
</text><text class="terminal-1351526283-r2" x="646.6" y="483.6" textLength="305" clip-path="url(#terminal-1351526283-line-19)">&#160;&#160;&#160;&#160;▀█▄▄▄▄▄▄▄▄▄▄▄▄▄▄▄▄▄█▀</text><text class="terminal-1351526283-r1" x="1610.4" y="483.6" textLength="12.2" clip-path="url(#terminal-1351526283-line-19)">
</text><text class="terminal-1351526283-r1" x="1610.4" y="508" textLength="12.2" clip-path="url(#terminal-1351526283-line-20)">
</text><text class="terminal-1351526283-r1" x="1610.4" y="532.4" textLength="12.2" clip-path="url(#terminal-1351526283-line-21)">
</text><text class="terminal-1351526283-r3" x="683.2" y="556.8" textLength="231.8" clip-path="url(#terminal-1351526283-line-22)">S&#160;U&#160;P&#160;E&#160;R&#160;R&#160;O&#160;B&#160;O&#160;T</text><text class="terminal-1351526283-r1" x="1610.4" y="556.8" textLength="12.2" clip-path="url(#terminal-1351526283-line-22)">
</text><text class="terminal-1351526283-r4" x="634.4" y="581.2" textLength="219.6" clip-path="url(#terminal-1351526283-line-23)">bring&#160;any&#160;agent&#160;to</text><text class="terminal-1351526283-r6" x="866.2" y="581.2" textLength="109.8" clip-path="url(#terminal-1351526283-line-23)">DataRobot</text><text class="terminal-1351526283-r1" x="1610.4" y="581.2" textLength="12.2" clip-path="url(#terminal-1351526283-line-23)">
</text><text class="terminal-1351526283-r1" x="1610.4" y="605.6" textLength="12.2" clip-path="url(#terminal-1351526283-line-24)">
</text><text class="terminal-1351526283-r2" x="634.4" y="630" textLength="61" clip-path="url(#terminal-1351526283-line-25)">○○●&#160;&#160;</text><text class="terminal-1351526283-r7" x="695.4" y="630" textLength="280.6" clip-path="url(#terminal-1351526283-line-25)">scanning&#160;research-agent</text><text class="terminal-1351526283-r1" x="1610.4" y="630" textLength="12.2" clip-path="url(#terminal-1351526283-line-25)">
</text><text class="terminal-1351526283-r1" x="1610.4" y="654.4" textLength="12.2" clip-path="url(#terminal-1351526283-line-26)">
</text><text class="terminal-1351526283-r1" x="1610.4" y="678.8" textLength="12.2" clip-path="url(#terminal-1351526283-line-27)">
</text><text class="terminal-1351526283-r4" x="597.8" y="703.2" textLength="414.8" clip-path="url(#terminal-1351526283-line-28)">v0.1.0&#160;·&#160;staging&#160;·&#160;any&#160;key&#160;to&#160;skip</text><text class="terminal-1351526283-r1" x="1610.4" y="703.2" textLength="12.2" clip-path="url(#terminal-1351526283-line-28)">
</text><text class="terminal-1351526283-r1" x="1610.4" y="727.6" textLength="12.2" clip-path="url(#terminal-1351526283-line-29)">
</text><text class="terminal-1351526283-r1" x="1610.4" y="752" textLength="12.2" clip-path="url(#terminal-1351526283-line-30)">
</text><text class="terminal-1351526283-r1" x="1610.4" y="776.4" textLength="12.2" clip-path="url(#terminal-1351526283-line-31)">
</text><text class="terminal-1351526283-r1" x="1610.4" y="800.8" textLength="12.2" clip-path="url(#terminal-1351526283-line-32)">
</text><text class="terminal-1351526283-r1" x="1610.4" y="825.2" textLength="12.2" clip-path="url(#terminal-1351526283-line-33)">
</text><text class="terminal-1351526283-r1" x="1610.4" y="849.6" textLength="12.2" clip-path="url(#terminal-1351526283-line-34)">
</text><text class="terminal-1351526283-r1" x="1610.4" y="874" textLength="12.2" clip-path="url(#terminal-1351526283-line-35)">
</text><text class="terminal-1351526283-r1" x="1610.4" y="898.4" textLength="12.2" clip-path="url(#terminal-1351526283-line-36)">
</text>
    </g>
    </g>
</svg>
